# xmcd
#
# Track frame offsets: 
#        150
#        15937
#        30843
#        49971
#        67628
#        79670
#        95970
#        112074
#        132733
#        156470
#        172296
#
# Disc length: 2487 seconds
#
# Revision: 0
# Processed by: cddbd v1.5.1PL0 Copyright (c) Steve Scherf et al.
# Submitted via: ExactAudioCopy v0.95a4
#
DISCID=9209b50b
DTITLE=Deana Carter - The Story Of My Life
DYEAR=2005
DGENRE=Country
TTITLE0=The Girl You Left Me For
TTITLE1=One Day At A Time
TTITLE2=Ordinary
TTITLE3=In A Heartbeat
TTITLE4=Katie
TTITLE5=Atlanta and Birmingham
TTITLE6=She's Good For You
TTITLE7=Not Another Love Song
TTITLE8=Sunny Day
TTITLE9=Getting Over You
TTITLE10=The Story Of My Life
EXTD=
EXTT0=
EXTT1=
EXTT2=
EXTT3=
EXTT4=
EXTT5=
EXTT6=
EXTT7=
EXTT8=
EXTT9=
EXTT10=
PLAYORDER=
